<svg width="271" height="374" viewBox="0 0 271 374" fill="none" xmlns="http://www.w3.org/2000/svg">
<mask id="path-1-inside-1" fill="white">
<path fill-rule="evenodd" clip-rule="evenodd" d="M197.838 43.1846C203.204 43.4013 208.572 43.9306 213.914 44.7782L310.324 109.36C313.14 113.978 315.672 118.74 317.915 123.62L197.838 43.1846ZM176.226 43.9987C172.505 44.4304 168.804 45.0121 165.132 45.7417L327.996 154.84C327.273 151.166 326.403 147.522 325.386 143.916L176.226 43.9987ZM139.889 53.2991C142.804 52.1154 145.755 51.0322 148.737 50.0509L330.249 171.641C330.476 174.772 330.598 177.913 330.612 181.059L139.889 53.2991ZM126.473 59.6038C123.984 60.941 121.531 62.3572 119.118 63.8515L328.757 204.283C329.221 201.483 329.597 198.675 329.887 195.864L126.473 59.6038ZM101.69 76.6437C103.71 74.9011 105.773 73.2237 107.876 71.6121L325.859 217.633C325.169 220.191 324.402 222.737 323.559 225.267L101.69 76.6437ZM92.245 85.608C90.4758 87.4538 88.7501 89.3569 87.0706 91.3168L315.553 244.37C316.726 242.072 317.83 239.751 318.863 237.413L92.245 85.608ZM77.0691 104.496C77.7784 103.437 78.4998 102.391 79.233 101.358L309.25 255.439C308.573 256.511 307.88 257.576 307.171 258.634C306.462 259.693 305.74 260.739 305.007 261.773L74.9906 107.691C75.6669 106.62 76.3598 105.555 77.0691 104.496ZM68.6871 118.76C67.5138 121.059 66.4106 123.379 65.377 125.717L291.995 277.522C293.765 275.677 295.49 273.774 297.17 271.814L68.6871 118.76ZM58.3817 145.498C59.0718 142.94 59.8381 140.394 60.6811 137.863L282.55 286.487C280.531 288.229 278.468 289.907 276.365 291.518L58.3817 145.498ZM55.483 158.848C55.0192 161.647 54.643 164.455 54.3537 167.266L257.767 303.527C260.256 302.189 262.71 300.773 265.122 299.279L55.483 158.848ZM53.9911 191.49C53.7639 188.358 53.6426 185.217 53.6283 182.072L244.351 309.831C241.437 311.015 238.486 312.098 235.504 313.08L53.9911 191.49ZM56.2446 208.291C56.9672 211.964 57.8378 215.608 58.8545 219.214L208.014 319.132C211.736 318.7 215.437 318.118 219.109 317.389L56.2446 208.291ZM73.9162 253.77C71.0998 249.152 68.5677 244.39 66.3255 239.51L186.402 319.946C181.036 319.729 175.668 319.2 170.327 318.352L73.9162 253.77ZM114.917 296.527C114.962 296.556 115.006 296.586 115.051 296.616C115.095 296.646 115.14 296.676 115.185 296.706L114.917 296.527Z"/>
</mask>
<path d="M213.914 44.7782L241.741 3.23718L232.607 -2.88117L221.75 -4.60402L213.914 44.7782ZM197.838 43.1846L199.855 -6.77468L22.7435 -13.9248L170.011 84.7256L197.838 43.1846ZM310.324 109.36L353.009 83.3231L347.285 73.9378L338.151 67.8194L310.324 109.36ZM317.915 123.62L290.088 165.161L437.355 263.811L363.348 102.744L317.915 123.62ZM165.132 45.7417L155.387 -3.29958L37.1519 20.1934L137.304 87.2827L165.132 45.7417ZM176.226 43.9987L204.053 2.45771L188.755 -7.7903L170.464 -5.66813L176.226 43.9987ZM327.996 154.84L300.169 196.381L400.321 263.47L377.056 145.19L327.996 154.84ZM325.386 143.916L373.509 130.346L368.511 112.623L353.213 102.375L325.386 143.916ZM148.737 50.0509L176.564 8.50987L156.288 -5.07247L133.106 2.55685L148.737 50.0509ZM139.889 53.2991L121.074 6.97414L33.8056 42.4183L112.062 94.8401L139.889 53.2991ZM330.249 171.641L380.118 168.023L378.352 143.682L358.076 130.1L330.249 171.641ZM330.612 181.059L302.785 222.6L381.042 275.021L380.612 180.83L330.612 181.059ZM119.118 63.8515L92.7913 21.3438L26.8178 62.2039L91.291 105.393L119.118 63.8515ZM126.473 59.6038L154.301 18.0628L129.311 1.32295L102.813 15.5561L126.473 59.6038ZM328.757 204.283L300.93 245.824L365.403 289.012L378.085 212.454L328.757 204.283ZM329.887 195.864L379.624 200.983L382.703 171.063L357.714 154.323L329.887 195.864ZM107.876 71.6121L135.703 30.0711L105.917 10.1189L77.462 31.9256L107.876 71.6121ZM101.69 76.6437L69.0257 38.7884L19.34 81.6612L73.8632 118.185L101.69 76.6437ZM325.859 217.633L374.133 230.657L383.471 196.044L353.686 176.092L325.859 217.633ZM323.559 225.267L295.732 266.808L350.256 303.332L370.996 241.07L323.559 225.267ZM87.0706 91.3168L49.1038 58.7818L12.4733 101.528L59.2435 132.858L87.0706 91.3168ZM92.245 85.608L120.072 44.0671L85.1963 20.7048L56.1489 51.0093L92.245 85.608ZM315.553 244.37L287.726 285.911L334.496 317.241L360.088 267.101L315.553 244.37ZM318.863 237.413L364.595 257.628L381.566 219.234L346.69 195.872L318.863 237.413ZM79.233 101.358L107.06 59.8171L66.6264 32.7318L38.4588 72.4191L79.233 101.358ZM309.25 255.439L351.527 282.134L377.51 240.984L337.077 213.898L309.25 255.439ZM305.007 261.773L277.18 303.314L317.614 330.399L345.782 290.711L305.007 261.773ZM74.9906 107.691L32.7131 80.9965L6.72994 122.147L47.1635 149.232L74.9906 107.691ZM65.377 125.717L19.6457 105.502L2.67407 143.896L37.5499 167.258L65.377 125.717ZM68.6871 118.76L96.5142 77.2192L49.7439 45.8892L24.1524 96.03L68.6871 118.76ZM291.995 277.522L264.168 319.063L299.044 342.426L328.092 312.121L291.995 277.522ZM297.17 271.814L335.136 304.349L371.767 261.603L324.997 230.273L297.17 271.814ZM60.6811 137.863L88.5082 96.3222L33.985 59.7987L13.244 122.061L60.6811 137.863ZM58.3817 145.498L10.1077 132.474L0.769389 167.087L30.5546 187.039L58.3817 145.498ZM282.55 286.487L315.215 324.342L364.901 281.469L310.377 244.946L282.55 286.487ZM276.365 291.518L248.538 333.059L278.323 353.011L306.778 331.205L276.365 291.518ZM54.3537 167.266L4.61643 162.147L1.53685 192.067L26.5266 208.807L54.3537 167.266ZM55.483 158.848L83.31 117.307L18.837 74.118L6.15514 150.676L55.483 158.848ZM257.767 303.527L229.94 345.068L254.929 361.807L281.427 347.574L257.767 303.527ZM265.122 299.279L291.449 341.786L357.423 300.926L292.95 257.738L265.122 299.279ZM53.6283 182.072L81.4553 140.531L3.19885 88.1089L3.62877 182.3L53.6283 182.072ZM53.9911 191.49L4.1221 195.107L5.88788 219.448L26.164 233.031L53.9911 191.49ZM244.351 309.831L263.166 356.156L350.435 320.712L272.178 268.29L244.351 309.831ZM235.504 313.08L207.677 354.62L227.953 368.203L251.134 360.574L235.504 313.08ZM58.8545 219.214L10.7312 232.784L15.7288 250.507L31.0274 260.755L58.8545 219.214ZM56.2446 208.291L84.0717 166.75L-16.0808 99.6605L7.18466 217.941L56.2446 208.291ZM208.014 319.132L180.187 360.673L195.486 370.921L213.777 368.799L208.014 319.132ZM219.109 317.389L228.853 366.43L347.089 342.937L246.936 275.848L219.109 317.389ZM66.3255 239.51L94.1526 197.969L-53.1147 99.319L20.892 260.386L66.3255 239.51ZM73.9162 253.77L31.2306 279.807L36.9555 289.192L46.0892 295.311L73.9162 253.77ZM186.402 319.946L184.385 369.905L361.497 377.055L214.229 278.405L186.402 319.946ZM170.327 318.352L142.5 359.893L151.633 366.012L162.491 367.735L170.327 318.352ZM114.917 296.527L142.744 254.986L87.0429 338.036L114.917 296.527ZM115.185 296.706L87.4049 338.278L143.012 255.165L115.185 296.706ZM221.75 -4.60402C214.469 -5.75922 207.158 -6.47985 199.855 -6.77468L195.822 93.1439C199.25 93.2823 202.675 93.6204 206.078 94.1604L221.75 -4.60402ZM338.151 67.8194L241.741 3.23718L186.087 86.3192L282.497 150.901L338.151 67.8194ZM363.348 102.744C360.296 96.1028 356.848 89.616 353.009 83.3231L267.638 135.398C269.433 138.339 271.049 141.378 272.481 144.496L363.348 102.744ZM170.011 84.7256L290.088 165.161L345.742 82.0792L225.665 1.64364L170.011 84.7256ZM174.876 94.783C177.23 94.3151 179.604 93.9422 181.989 93.6655L170.464 -5.66813C165.406 -5.08138 160.377 -4.29099 155.387 -3.29958L174.876 94.783ZM355.823 113.299L192.959 4.20071L137.304 87.2827L300.169 196.381L355.823 113.299ZM277.263 157.487C277.914 159.798 278.472 162.134 278.936 164.49L377.056 145.19C376.074 140.198 374.891 135.246 373.509 130.346L277.263 157.487ZM148.399 85.5397L297.559 185.457L353.213 102.375L204.053 2.45771L148.399 85.5397ZM133.106 2.55685C129.052 3.89102 125.039 5.36389 121.074 6.97414L158.704 99.624C160.568 98.8669 162.457 98.1735 164.367 97.5449L133.106 2.55685ZM358.076 130.1L176.564 8.50987L120.91 91.5918L302.422 213.182L358.076 130.1ZM380.612 180.83C380.592 176.551 380.427 172.28 380.118 168.023L280.38 175.258C280.526 177.264 280.603 179.275 280.613 181.287L380.612 180.83ZM112.062 94.8401L302.785 222.6L358.439 139.518L167.716 11.7581L112.062 94.8401ZM145.445 106.359C146.982 105.407 148.545 104.505 150.134 103.651L102.813 15.5561C99.4224 17.3776 96.0799 19.3071 92.7913 21.3438L145.445 106.359ZM356.584 162.742L146.945 22.3105L91.291 105.393L300.93 245.824L356.584 162.742ZM280.149 190.745C279.965 192.538 279.725 194.328 279.43 196.112L378.085 212.454C378.717 208.638 379.23 204.812 379.624 200.983L280.149 190.745ZM98.6464 101.145L302.06 237.405L357.714 154.323L154.301 18.0628L98.6464 101.145ZM77.462 31.9256C74.5936 34.1238 71.78 36.4117 69.0257 38.7884L134.355 114.499C135.639 113.391 136.951 112.324 138.289 111.299L77.462 31.9256ZM353.686 176.092L135.703 30.0711L80.0485 113.153L298.032 259.173L353.686 176.092ZM370.996 241.07C372.146 237.618 373.191 234.146 374.133 230.657L277.585 204.608C277.146 206.236 276.658 207.855 276.122 209.465L370.996 241.07ZM73.8632 118.185L295.732 266.808L351.386 183.726L129.517 35.1027L73.8632 118.185ZM125.037 123.852C126.111 122.599 127.213 121.384 128.341 120.207L56.1489 51.0093C53.7384 53.5241 51.3889 56.1153 49.1038 58.7818L125.037 123.852ZM343.38 202.83L114.898 49.7758L59.2435 132.858L287.726 285.911L343.38 202.83ZM273.132 217.198C272.473 218.689 271.769 220.17 271.018 221.64L360.088 267.101C361.684 263.973 363.186 260.814 364.595 257.628L273.132 217.198ZM64.4179 127.149L291.036 278.954L346.69 195.872L120.072 44.0671L64.4179 127.149ZM38.4588 72.4191C37.4651 73.8192 36.4881 75.2358 35.5282 76.6688L118.61 132.323C119.069 131.638 119.535 130.963 120.007 130.297L38.4588 72.4191ZM337.077 213.898L107.06 59.8171L51.4059 142.899L281.422 296.98L337.077 213.898ZM348.712 286.462C349.672 285.029 350.61 283.586 351.527 282.134L266.972 228.744C266.536 229.435 266.089 230.123 265.63 230.807L348.712 286.462ZM345.782 290.711C346.775 289.312 347.752 287.895 348.712 286.462L265.63 230.807C265.172 231.492 264.706 232.167 264.233 232.834L345.782 290.711ZM47.1635 149.232L277.18 303.314L332.834 220.232L102.818 66.1503L47.1635 149.232ZM35.5282 76.6688C34.5681 78.102 33.6298 79.5447 32.7131 80.9965L117.268 134.386C117.704 133.696 118.151 133.008 118.61 132.323L35.5282 76.6688ZM111.108 145.932C111.767 144.442 112.472 142.96 113.222 141.49L24.1524 96.03C22.5561 99.1577 21.054 102.316 19.6457 105.502L111.108 145.932ZM319.823 235.981L93.2041 84.1763L37.5499 167.258L264.168 319.063L319.823 235.981ZM259.203 239.279C258.129 240.532 257.027 241.747 255.899 242.924L328.092 312.121C330.502 309.606 332.851 307.015 335.136 304.349L259.203 239.279ZM40.86 160.301L269.342 313.355L324.997 230.273L96.5142 77.2192L40.86 160.301ZM13.244 122.061C12.0942 125.512 11.0491 128.985 10.1077 132.474L106.656 158.522C107.095 156.895 107.582 155.275 108.118 153.666L13.244 122.061ZM310.377 244.946L88.5082 96.3222L32.854 179.404L254.723 328.028L310.377 244.946ZM306.778 331.205C309.647 329.007 312.46 326.719 315.215 324.342L249.886 248.631C248.601 249.74 247.289 250.807 245.951 251.832L306.778 331.205ZM30.5546 187.039L248.538 333.059L304.192 249.977L86.2088 103.957L30.5546 187.039ZM104.091 172.385C104.275 170.592 104.515 168.802 104.811 167.019L6.15514 150.676C5.52299 154.493 5.01051 158.318 4.61643 162.147L104.091 172.385ZM285.594 261.986L82.1807 125.725L26.5266 208.807L229.94 345.068L285.594 261.986ZM238.796 256.771C237.259 257.723 235.695 258.626 234.107 259.479L281.427 347.574C284.818 345.753 288.161 343.823 291.449 341.786L238.796 256.771ZM27.6559 200.389L237.295 340.82L292.95 257.738L83.31 117.307L27.6559 200.389ZM3.62877 182.3C3.6483 186.579 3.81331 190.851 4.1221 195.107L103.86 187.872C103.715 185.866 103.637 183.856 103.628 181.843L3.62877 182.3ZM272.178 268.29L81.4553 140.531L25.8012 223.613L216.524 351.372L272.178 268.29ZM251.134 360.574C255.188 359.239 259.202 357.766 263.166 356.156L225.536 263.506C223.672 264.264 221.783 264.957 219.873 265.585L251.134 360.574ZM26.164 233.031L207.677 354.62L263.331 271.539L81.8181 149.949L26.164 233.031ZM106.978 205.644C106.326 203.333 105.768 200.996 105.305 198.641L7.18466 217.941C8.16645 222.932 9.34945 227.884 10.7312 232.784L106.978 205.644ZM235.841 277.591L86.6815 177.673L31.0274 260.755L180.187 360.673L235.841 277.591ZM209.365 268.347C207.01 268.815 204.637 269.188 202.252 269.465L213.777 368.799C218.834 368.212 223.864 367.421 228.853 366.43L209.365 268.347ZM28.4175 249.832L191.282 358.93L246.936 275.848L84.0717 166.75L28.4175 249.832ZM20.892 260.386C23.9437 267.027 27.3921 273.514 31.2306 279.807L116.602 227.733C114.807 224.791 113.192 221.752 111.759 218.634L20.892 260.386ZM214.229 278.405L94.1526 197.969L38.4985 281.051L158.575 361.487L214.229 278.405ZM162.491 367.735C169.771 368.89 177.082 369.61 184.385 369.905L188.419 269.987C184.99 269.848 181.566 269.51 178.162 268.97L162.491 367.735ZM46.0892 295.311L142.5 359.893L198.154 276.811L101.743 212.229L46.0892 295.311ZM87.0429 338.036C87.1031 338.076 87.1635 338.117 87.2238 338.157L142.878 255.075C142.849 255.056 142.82 255.037 142.792 255.017L87.0429 338.036ZM87.2238 338.157C87.2841 338.198 87.3445 338.238 87.4049 338.278L142.964 255.133C142.936 255.114 142.907 255.095 142.878 255.075L87.2238 338.157ZM143.012 255.165L142.744 254.986L87.0901 338.068L87.3576 338.247L143.012 255.165Z" fill="#C2C5CC" fill-opacity="0.2" mask="url(#path-1-inside-1)"/>
</svg>
