<svg width="28" height="28" viewBox="0 0 28 28" fill="none" xmlns="http://www.w3.org/2000/svg">
<path d="M23.8881 21.873V24.8746C23.8892 25.1532 23.8322 25.4291 23.7206 25.6844C23.6091 25.9397 23.4454 26.1689 23.2402 26.3573C23.035 26.5456 22.7927 26.689 22.5289 26.7783C22.265 26.8676 21.9855 26.9007 21.7081 26.8757C18.631 26.5411 15.6751 25.4891 13.0781 23.804C10.6619 22.2678 8.61345 20.2182 7.07812 17.8008C5.38809 15.1906 4.33636 12.2188 4.00812 9.1261C3.98313 8.84941 4.01599 8.57056 4.10462 8.30728C4.19324 8.044 4.33569 7.80207 4.52288 7.59689C4.71008 7.39172 4.93792 7.22778 5.19191 7.11554C5.44589 7.00329 5.72046 6.94518 5.99812 6.94492H8.99812C9.48342 6.94014 9.95391 7.11209 10.3219 7.42871C10.6898 7.74534 10.9302 8.18504 10.9981 8.66585C11.1247 9.62643 11.3596 10.5696 11.6981 11.4774C11.8327 11.8355 11.8618 12.2247 11.782 12.5988C11.7023 12.973 11.517 13.3165 11.2481 13.5885L9.97812 14.8592C11.4017 17.3641 13.4746 19.4381 15.9781 20.8624L17.2481 19.5917C17.52 19.3227 17.8633 19.1373 18.2372 19.0575C18.6112 18.9777 19.0002 19.0069 19.3581 19.1415C20.2654 19.4802 21.2081 19.7152 22.1681 19.8419C22.6539 19.9104 23.0975 20.1552 23.4146 20.5297C23.7318 20.9042 23.9003 21.3823 23.8881 21.873Z" stroke="#3451D2" stroke-width="1.5" stroke-linecap="round" stroke-linejoin="round"/>
</svg>
