<svg width="128" height="128" viewBox="0 0 128 128" fill="none" xmlns="http://www.w3.org/2000/svg">
<path d="M98.8195 71.8833C98.2422 70.9639 97.4875 70.1688 96.5995 69.5446C95.7116 68.9203 94.7081 68.4795 93.6479 68.2476C89.5915 67.3037 86.0735 64.7917 83.8625 61.2604C81.6516 57.7291 80.9276 53.4658 81.8486 49.402C82.2027 47.8314 82.0851 46.1911 81.5105 44.6871C80.9359 43.1831 79.93 41.8824 78.6191 40.9486C77.3081 40.0148 75.7506 39.4894 74.1421 39.4383C72.5337 39.3873 70.9461 39.8128 69.5786 40.6616C68.2111 41.5104 67.1248 42.7445 66.456 44.209C65.7873 45.6736 65.5659 47.3031 65.8198 48.8931C66.0736 50.483 66.7914 51.9626 67.8829 53.1457C68.9743 54.3288 70.3909 55.163 71.9546 55.5432C73.9776 55.9998 75.8906 56.8513 77.584 58.0491C79.2774 59.2467 80.7179 60.7672 81.8229 62.5229C82.9279 64.2788 83.6757 66.2355 84.0234 68.2811C84.3712 70.3266 84.312 72.4207 83.8493 74.4433C83.5753 75.7472 83.6241 77.0984 83.9916 78.379C84.3591 79.6596 85.0341 80.8308 85.9577 81.7907C86.8813 82.7506 88.0254 83.4699 89.2905 83.8859C90.5556 84.3019 91.9031 84.402 93.2157 84.1775C94.5284 83.9531 95.7662 83.4108 96.8214 82.5981C97.8766 81.7852 98.717 80.7267 99.2696 79.5144C99.8221 78.302 100.07 76.973 99.9916 75.643C99.9131 74.3129 99.5108 73.0221 98.8195 71.8833Z" fill="#C2C5CC"/>
<path d="M48.6144 62.8144C50.0429 63.5944 51.6716 63.9295 53.2917 63.7769C54.9119 63.6242 56.4494 62.9906 57.7072 61.9576C58.965 60.9244 59.8856 59.5389 60.3508 57.9787C60.8161 56.4185 60.8048 54.7547 60.3184 53.201C59.7019 51.2197 59.4823 49.1363 59.6722 47.07C59.8621 45.0036 60.4576 42.9951 61.4249 41.1596C62.3921 39.3241 63.7119 37.6976 65.3086 36.3734C66.9053 35.0492 68.7475 34.0535 70.7296 33.443C72.2669 32.9613 73.6273 32.0353 74.6398 30.7817C75.6523 29.5281 76.2716 28.0029 76.4197 26.3979C76.5679 24.7929 76.2383 23.1799 75.4724 21.7621C74.7065 20.3441 73.5385 19.1844 72.1155 18.4291C70.6924 17.6738 69.0779 17.3565 67.4751 17.5171C65.8722 17.6777 64.3526 18.3091 63.1075 19.3318C61.8624 20.3545 60.9475 21.7228 60.4778 23.2646C60.0082 24.8063 60.0048 26.4526 60.4681 27.9963C61.6843 31.9814 61.273 36.2865 59.3244 39.969C57.3757 43.6515 54.0484 46.4116 50.0706 47.6453C48.5003 48.1009 47.1028 49.0176 46.0591 50.2769C45.0154 51.5362 44.3735 53.0799 44.2166 54.7082C44.0598 56.3366 44.3951 57.9746 45.1792 59.4101C45.9633 60.8457 47.16 62.0126 48.6144 62.7599V62.8144Z" fill="#C2C5CC"/>
<path d="M69.6273 61.4798C68.5416 61.5179 67.4745 61.7725 66.4883 62.2284C65.5021 62.6844 64.6168 63.3325 63.8841 64.1352C61.0416 67.1771 57.1109 68.9693 52.9515 69.1199C48.792 69.2705 44.7421 67.767 41.6873 64.9385C40.898 64.1975 39.9694 63.6209 38.9554 63.2422C37.9415 62.8635 36.8624 62.6903 35.7809 62.7326C34.4497 62.7954 33.154 63.1833 32.0071 63.8624C30.8601 64.5415 29.8968 65.4911 29.2011 66.6283C28.5053 67.7656 28.0984 69.056 28.0157 70.3869C27.9331 71.7178 28.1772 73.0486 28.7269 74.2634C29.2766 75.478 30.115 76.5397 31.1691 77.3557C32.2232 78.1716 33.4608 78.7169 34.774 78.9441C36.0872 79.1714 37.4361 79.0736 38.7028 78.6593C39.9696 78.245 41.1157 77.5268 42.0411 76.5672C43.4489 75.0422 45.1435 73.81 47.0279 72.9414C48.9124 72.0727 50.9496 71.5844 53.0229 71.5048C55.0962 71.4251 57.1649 71.7554 59.1104 72.4769C61.0559 73.1985 62.84 74.2969 64.3605 75.7094C65.3504 76.6044 66.5444 77.2429 67.838 77.5693C69.1317 77.8958 70.4855 77.9001 71.7812 77.5819C73.0769 77.2637 74.2748 76.6328 75.2704 75.7442C76.266 74.8556 77.0288 73.7364 77.4922 72.4846C77.9555 71.2328 78.1052 69.8866 77.9283 68.5635C77.7513 67.2405 77.253 65.981 76.4769 64.8951C75.7009 63.8093 74.6709 62.9303 73.4768 62.3349C72.2827 61.7396 70.961 61.4459 69.6273 61.4798Z" fill="#C2C5CC"/>
<path d="M35.56 104L30.38 90H32.64L36.84 101.8L41.06 90H43.3L38.12 104H35.56ZM48.4214 104.24C47.4747 104.24 46.6214 104.027 45.8614 103.6C45.1147 103.16 44.5214 102.553 44.0814 101.78C43.6414 100.993 43.4214 100.08 43.4214 99.04C43.4214 98 43.6414 97.0933 44.0814 96.32C44.5347 95.5333 45.1414 94.9267 45.9014 94.5C46.6614 94.06 47.5081 93.84 48.4414 93.84C49.3881 93.84 50.2347 94.06 50.9814 94.5C51.7414 94.9267 52.3414 95.5333 52.7814 96.32C53.2347 97.0933 53.4614 98 53.4614 99.04C53.4614 100.08 53.2347 100.993 52.7814 101.78C52.3414 102.553 51.7414 103.16 50.9814 103.6C50.2214 104.027 49.3681 104.24 48.4214 104.24ZM48.4214 102.42C48.9281 102.42 49.3947 102.293 49.8214 102.04C50.2614 101.787 50.6147 101.413 50.8814 100.92C51.1481 100.413 51.2814 99.7867 51.2814 99.04C51.2814 98.2933 51.1481 97.6733 50.8814 97.18C50.6281 96.6733 50.2814 96.2933 49.8414 96.04C49.4147 95.7867 48.9481 95.66 48.4414 95.66C47.9347 95.66 47.4614 95.7867 47.0214 96.04C46.5947 96.2933 46.2481 96.6733 45.9814 97.18C45.7147 97.6733 45.5814 98.2933 45.5814 99.04C45.5814 99.7867 45.7147 100.413 45.9814 100.92C46.2481 101.413 46.5947 101.787 47.0214 102.04C47.4481 102.293 47.9147 102.42 48.4214 102.42ZM55.7541 104V94.08H57.6541L57.8341 95.96C58.1807 95.3067 58.6607 94.7933 59.2741 94.42C59.9007 94.0333 60.6541 93.84 61.5341 93.84V96.06H60.9541C60.3674 96.06 59.8407 96.16 59.3741 96.36C58.9207 96.5467 58.5541 96.8733 58.2741 97.34C58.0074 97.7933 57.8741 98.4267 57.8741 99.24V104H55.7541ZM67.5117 104C66.5384 104 65.7651 103.767 65.1917 103.3C64.6184 102.82 64.3317 101.973 64.3317 100.76V95.86H62.6317V94.08H64.3317L64.5917 91.56H66.4517V94.08H69.2517V95.86H66.4517V100.76C66.4517 101.307 66.5651 101.687 66.7917 101.9C67.0317 102.1 67.4384 102.2 68.0117 102.2H69.1517V104H67.5117ZM75.8238 104.24C74.8504 104.24 73.9838 104.027 73.2238 103.6C72.4771 103.16 71.8904 102.553 71.4638 101.78C71.0371 101.007 70.8238 100.107 70.8238 99.08C70.8238 98.04 71.0304 97.1267 71.4438 96.34C71.8704 95.5533 72.4571 94.94 73.2038 94.5C73.9638 94.06 74.8438 93.84 75.8438 93.84C76.8171 93.84 77.6638 94.06 78.3838 94.5C79.1038 94.9267 79.6638 95.5 80.0638 96.22C80.4638 96.94 80.6638 97.7333 80.6638 98.6C80.6638 98.7333 80.6571 98.88 80.6438 99.04C80.6438 99.1867 80.6371 99.3533 80.6238 99.54H72.9038C72.9704 100.5 73.2838 101.233 73.8438 101.74C74.4171 102.233 75.0771 102.48 75.8238 102.48C76.4238 102.48 76.9238 102.347 77.3238 102.08C77.7371 101.8 78.0438 101.427 78.2438 100.96H80.3638C80.0971 101.893 79.5638 102.673 78.7638 103.3C77.9771 103.927 76.9971 104.24 75.8238 104.24ZM75.8238 95.58C75.1171 95.58 74.4904 95.7933 73.9438 96.22C73.3971 96.6333 73.0638 97.26 72.9438 98.1H78.5438C78.5038 97.3267 78.2304 96.7133 77.7238 96.26C77.2171 95.8067 76.5838 95.58 75.8238 95.58ZM81.3175 104L84.8375 99.04L81.3175 94.08H83.5775L86.2375 97.88L88.8775 94.08H91.1575L87.6375 99.04L91.1575 104H88.8775L86.2375 100.2L83.5775 104H81.3175Z" fill="#C2C5CC"/>
</svg>
