<svg width="128" height="128" viewBox="0 0 128 128" fill="none" xmlns="http://www.w3.org/2000/svg">
<path d="M35.4529 23.6895L23 36.1492L35.4529 48.6089L47.9058 36.1492L35.4529 23.6895Z" fill="#C2C5CC"/>
<path d="M47.9265 36.1438L35.4689 23.6794C38.7702 26.9837 40.6248 31.4646 40.6248 36.1368C40.6248 40.809 38.7702 45.29 35.4689 48.5943L23.0112 61.0448L35.4689 73.5092L47.9265 61.0448L60.3841 48.5943L47.9265 36.1438Z" fill="url(#paint0_linear)"/>
<path d="M90.7534 73.5361L103.206 61.0764L90.7534 48.6167L78.3005 61.0764L90.7534 73.5361Z" fill="#C2C5CC"/>
<path d="M78.3025 61.0727L90.7602 73.5231C87.4588 70.2188 85.6043 65.7379 85.6043 61.0656C85.6043 56.3935 87.4588 51.9126 90.7602 48.6083L103.218 36.1438L90.7602 23.6794L78.3025 36.1438L65.8589 48.6083L78.3025 61.0727Z" fill="url(#paint1_linear)"/>
<path d="M38.2087 76.2756L50.6616 88.7353L63.1145 76.2756L50.6616 63.8158L38.2087 76.2756Z" fill="#C2C5CC"/>
<path d="M50.6637 63.7972L38.2061 76.2616C41.5086 72.9585 45.987 71.1029 50.6567 71.1029C55.3263 71.1029 59.8048 72.9585 63.1073 76.2616L75.5511 88.7263L88.0087 76.2616L75.5511 63.7972L63.1073 51.3467L50.6637 63.7972Z" fill="url(#paint2_linear)"/>
<path d="M88.0287 20.9314L75.5757 8.47156L63.1228 20.9313L75.5757 33.3911L88.0287 20.9314Z" fill="#C2C5CC"/>
<path d="M75.5789 33.4048L88.0226 20.9404C84.72 24.2435 80.2415 26.0991 75.5719 26.0991C70.9022 26.0991 66.4238 24.2435 63.1212 20.9404L50.6637 8.47589L38.2061 20.9404L50.6637 33.4048L63.1212 45.8693L75.5789 33.4048Z" fill="url(#paint3_linear)"/>
<path d="M23.72 113L28.04 105.92L23.68 99H26.1L29.4 104.24L32.48 99H34.86L30.52 106.02L34.92 113H32.5L29.18 107.72L26.1 113H23.72ZM39.8289 113.24C38.9889 113.24 38.2956 113.1 37.7489 112.82C37.2022 112.54 36.7956 112.173 36.5289 111.72C36.2622 111.253 36.1289 110.747 36.1289 110.2C36.1289 109.24 36.5022 108.48 37.2489 107.92C37.9956 107.36 39.0622 107.08 40.4489 107.08H43.0489V106.9C43.0489 106.127 42.8356 105.547 42.4089 105.16C41.9956 104.773 41.4556 104.58 40.7889 104.58C40.2022 104.58 39.6889 104.727 39.2489 105.02C38.8222 105.3 38.5622 105.72 38.4689 106.28H36.3489C36.4156 105.56 36.6556 104.947 37.0689 104.44C37.4956 103.92 38.0289 103.527 38.6689 103.26C39.3222 102.98 40.0356 102.84 40.8089 102.84C42.1956 102.84 43.2689 103.207 44.0289 103.94C44.7889 104.66 45.1689 105.647 45.1689 106.9V113H43.3289L43.1489 111.3C42.8689 111.847 42.4622 112.307 41.9289 112.68C41.3956 113.053 40.6956 113.24 39.8289 113.24ZM40.2489 111.52C40.8222 111.52 41.3022 111.387 41.6889 111.12C42.0889 110.84 42.3956 110.473 42.6089 110.02C42.8356 109.567 42.9756 109.067 43.0289 108.52H40.6689C39.8289 108.52 39.2289 108.667 38.8689 108.96C38.5222 109.253 38.3489 109.62 38.3489 110.06C38.3489 110.513 38.5156 110.873 38.8489 111.14C39.1956 111.393 39.6622 111.52 40.2489 111.52ZM47.6408 113V103.08H49.5208L49.7008 104.48C50.0208 103.973 50.4408 103.573 50.9608 103.28C51.4941 102.987 52.1074 102.84 52.8008 102.84C54.3741 102.84 55.4674 103.46 56.0808 104.7C56.4408 104.127 56.9208 103.673 57.5208 103.34C58.1341 103.007 58.7941 102.84 59.5008 102.84C60.7408 102.84 61.7141 103.213 62.4208 103.96C63.1274 104.707 63.4808 105.82 63.4808 107.3V113H61.3608V107.52C61.3608 105.6 60.6274 104.64 59.1608 104.64C58.4141 104.64 57.8008 104.92 57.3208 105.48C56.8541 106.04 56.6208 106.84 56.6208 107.88V113H54.5008V107.52C54.5008 105.6 53.7608 104.64 52.2808 104.64C51.5474 104.64 50.9408 104.92 50.4608 105.48C49.9941 106.04 49.7608 106.84 49.7608 107.88V113H47.6408ZM69.3211 113.24C68.4811 113.24 67.7878 113.1 67.2411 112.82C66.6944 112.54 66.2878 112.173 66.0211 111.72C65.7544 111.253 65.6211 110.747 65.6211 110.2C65.6211 109.24 65.9944 108.48 66.7411 107.92C67.4878 107.36 68.5544 107.08 69.9411 107.08H72.5411V106.9C72.5411 106.127 72.3278 105.547 71.9011 105.16C71.4878 104.773 70.9478 104.58 70.2811 104.58C69.6944 104.58 69.1811 104.727 68.7411 105.02C68.3144 105.3 68.0544 105.72 67.9611 106.28H65.8411C65.9078 105.56 66.1478 104.947 66.5611 104.44C66.9878 103.92 67.5211 103.527 68.1611 103.26C68.8144 102.98 69.5278 102.84 70.3011 102.84C71.6878 102.84 72.7611 103.207 73.5211 103.94C74.2811 104.66 74.6611 105.647 74.6611 106.9V113H72.8211L72.6411 111.3C72.3611 111.847 71.9544 112.307 71.4211 112.68C70.8878 113.053 70.1878 113.24 69.3211 113.24ZM69.7411 111.52C70.3144 111.52 70.7944 111.387 71.1811 111.12C71.5811 110.84 71.8878 110.473 72.1011 110.02C72.3278 109.567 72.4678 109.067 72.5211 108.52H70.1611C69.3211 108.52 68.7211 108.667 68.3611 108.96C68.0144 109.253 67.8411 109.62 67.8411 110.06C67.8411 110.513 68.0078 110.873 68.3411 111.14C68.6878 111.393 69.1544 111.52 69.7411 111.52ZM77.133 113V103.08H79.033L79.213 104.96C79.5596 104.307 80.0396 103.793 80.653 103.42C81.2796 103.033 82.033 102.84 82.913 102.84V105.06H82.333C81.7463 105.06 81.2196 105.16 80.753 105.36C80.2996 105.547 79.933 105.873 79.653 106.34C79.3863 106.793 79.253 107.427 79.253 108.24V113H77.133ZM85.9306 101.2C85.5306 101.2 85.1973 101.08 84.9306 100.84C84.6773 100.587 84.5506 100.273 84.5506 99.9C84.5506 99.5267 84.6773 99.22 84.9306 98.98C85.1973 98.7267 85.5306 98.6 85.9306 98.6C86.3306 98.6 86.6573 98.7267 86.9106 98.98C87.1773 99.22 87.3106 99.5267 87.3106 99.9C87.3106 100.273 87.1773 100.587 86.9106 100.84C86.6573 101.08 86.3306 101.2 85.9306 101.2ZM84.8706 113V103.08H86.9906V113H84.8706ZM89.7892 113V103.08H91.6692L91.8292 104.82C92.1359 104.207 92.5826 103.727 93.1692 103.38C93.7692 103.02 94.4559 102.84 95.2292 102.84C96.4292 102.84 97.3692 103.213 98.0492 103.96C98.7426 104.707 99.0892 105.82 99.0892 107.3V113H96.9892V107.52C96.9892 105.6 96.2026 104.64 94.6292 104.64C93.8426 104.64 93.1892 104.92 92.6692 105.48C92.1626 106.04 91.9092 106.84 91.9092 107.88V113H89.7892Z" fill="#C2C5CC"/>
<defs>
<linearGradient id="paint0_linear" x1="41.572" y1="71.469" x2="41.8796" y2="28.3605" gradientUnits="userSpaceOnUse">
<stop stop-color="#A7A9AC"/>
<stop offset="1" stop-color="#E6E7E8"/>
</linearGradient>
<linearGradient id="paint1_linear" x1="146828" y1="18851.1" x2="146813" y2="20388.8" gradientUnits="userSpaceOnUse">
<stop stop-color="#A7A9AC"/>
<stop offset="1" stop-color="#E6E7E8"/>
</linearGradient>
<linearGradient id="paint2_linear" x1="94618.9" y1="113359" x2="93466.3" y2="113353" gradientUnits="userSpaceOnUse">
<stop stop-color="#414042"/>
<stop offset="1" stop-color="#E6E7E8"/>
</linearGradient>
<linearGradient id="paint3_linear" x1="77163.6" y1="-58669.6" x2="78316.6" y2="-58663.4" gradientUnits="userSpaceOnUse">
<stop stop-color="#C2C5CC"/>
<stop offset="1" stop-color="#E6E7E8"/>
</linearGradient>
</defs>
</svg>
