<svg width="129" height="130" viewBox="0 0 129 130" fill="none" xmlns="http://www.w3.org/2000/svg">
<g opacity="0.1">
<path opacity="0.1" d="M128.12 125.655V128.657H125.12" stroke="#20263C" stroke-miterlimit="10"/>
<path opacity="0.1" d="M119.35 128.657H6.87988" stroke="#20263C" stroke-miterlimit="10" stroke-dasharray="5.77 5.77"/>
<path opacity="0.1" d="M4 128.657H1V125.655" stroke="#20263C" stroke-miterlimit="10"/>
<path opacity="0.1" d="M1 119.892V7.35028" stroke="#20263C" stroke-miterlimit="10" stroke-dasharray="5.77 5.77"/>
<path opacity="0.1" d="M1 4.46875V1.46716H4" stroke="#20263C" stroke-miterlimit="10"/>
<path opacity="0.1" d="M9.76001 1.46716H122.24" stroke="#20263C" stroke-miterlimit="10" stroke-dasharray="5.77 5.77"/>
<path opacity="0.1" d="M125.12 1.46716H128.12V4.46875" stroke="#20263C" stroke-miterlimit="10"/>
<path opacity="0.1" d="M128.12 10.242V122.773" stroke="#20263C" stroke-miterlimit="10" stroke-dasharray="5.77 5.77"/>
</g>
<path d="M93.2867 23.1972C87.6929 17.5994 80.5656 13.7871 72.8061 12.2422C65.0467 10.6974 57.0037 11.4895 49.6943 14.5185C42.3849 17.5474 36.1373 22.6772 31.7417 29.2588C27.3461 35.8405 25 43.5786 25 51.4945C25 59.4104 27.3461 67.1484 31.7417 73.7302C36.1373 80.3118 42.3849 85.4416 49.6943 88.4705C57.0037 91.4994 65.0467 92.2916 72.8061 90.7467C80.5656 89.2019 87.6929 85.3895 93.2867 79.7918C100.787 72.2864 105 62.1077 105 51.4945C105 40.8813 100.787 30.7026 93.2867 23.1972ZM35.4321 37.9507C37.4477 33.4776 40.4343 29.5102 44.1749 26.337C47.9153 23.1639 52.3156 20.8646 57.0556 19.6067C61.7957 18.3487 66.7564 18.1636 71.577 19.0648C76.3976 19.966 80.9567 21.9308 84.9231 24.8164C75.1049 23.8886 62.814 28.9094 52.8504 38.8603C49.09 42.6166 45.9041 46.9077 43.3959 51.5945C39.9843 47.5335 37.291 42.9191 35.4321 37.9507ZM57.4867 84.376C49.8947 82.3407 43.2767 77.6639 38.8213 71.1854C34.3659 64.707 32.3649 56.8514 33.1777 49.0294C37.3049 57.998 47.7231 66.1479 61.3959 69.7863C66.5001 71.1716 71.7829 71.7848 77.0686 71.6054C75.2721 76.5773 72.6471 81.209 69.3049 85.3038C65.3397 85.7051 61.3346 85.3784 57.4867 84.3397V84.376ZM82.3777 46.3371C81.0299 41.207 78.9347 36.3033 76.1594 31.7837C81.358 30.8578 86.6759 30.8209 91.8867 31.6745C94.2191 34.9053 95.9386 38.5373 96.9594 42.3895C98.997 49.9868 98.26 58.0621 94.8807 65.1644C91.5014 72.2667 85.7016 77.9303 78.5231 81.1379C84.1959 73.1154 86.014 59.9627 82.3777 46.3371Z" fill="#C2C5CC"/>
<path d="M39.88 111.24C38.4933 111.24 37.28 110.933 36.24 110.32C35.2 109.707 34.3867 108.86 33.8 107.78C33.2133 106.687 32.92 105.427 32.92 104C32.92 102.573 33.2133 101.32 33.8 100.24C34.3867 99.1467 35.2 98.2933 36.24 97.68C37.28 97.0667 38.4933 96.76 39.88 96.76C41.2667 96.76 42.48 97.0667 43.52 97.68C44.56 98.2933 45.3667 99.1467 45.94 100.24C46.5267 101.32 46.82 102.573 46.82 104C46.82 105.427 46.5267 106.687 45.94 107.78C45.3667 108.86 44.56 109.707 43.52 110.32C42.48 110.933 41.2667 111.24 39.88 111.24ZM39.88 109.34C40.84 109.34 41.6733 109.127 42.38 108.7C43.1 108.273 43.66 107.66 44.06 106.86C44.46 106.06 44.66 105.107 44.66 104C44.66 102.893 44.46 101.94 44.06 101.14C43.66 100.34 43.1 99.7267 42.38 99.3C41.6733 98.8733 40.84 98.66 39.88 98.66C38.92 98.66 38.08 98.8733 37.36 99.3C36.64 99.7267 36.08 100.34 35.68 101.14C35.2933 101.94 35.1 102.893 35.1 104C35.1 105.107 35.2933 106.06 35.68 106.86C36.08 107.66 36.64 108.273 37.36 108.7C38.08 109.127 38.92 109.34 39.88 109.34ZM49.1017 111V101.08H51.0017L51.1817 102.96C51.5284 102.307 52.0084 101.793 52.6217 101.42C53.2484 101.033 54.0017 100.84 54.8817 100.84V103.06H54.3017C53.7151 103.06 53.1884 103.16 52.7217 103.36C52.2684 103.547 51.9017 103.873 51.6217 104.34C51.3551 104.793 51.2217 105.427 51.2217 106.24V111H49.1017ZM60.8594 111C59.886 111 59.1127 110.767 58.5394 110.3C57.966 109.82 57.6794 108.973 57.6794 107.76V102.86H55.9794V101.08H57.6794L57.9394 98.56H59.7994V101.08H62.5994V102.86H59.7994V107.76C59.7994 108.307 59.9127 108.687 60.1394 108.9C60.3794 109.1 60.786 109.2 61.3594 109.2H62.4994V111H60.8594ZM69.1714 111.24C68.1981 111.24 67.3314 111.027 66.5714 110.6C65.8247 110.16 65.2381 109.553 64.8114 108.78C64.3847 108.007 64.1714 107.107 64.1714 106.08C64.1714 105.04 64.3781 104.127 64.7914 103.34C65.2181 102.553 65.8047 101.94 66.5514 101.5C67.3114 101.06 68.1914 100.84 69.1914 100.84C70.1647 100.84 71.0114 101.06 71.7314 101.5C72.4514 101.927 73.0114 102.5 73.4114 103.22C73.8114 103.94 74.0114 104.733 74.0114 105.6C74.0114 105.733 74.0047 105.88 73.9914 106.04C73.9914 106.187 73.9847 106.353 73.9714 106.54H66.2514C66.3181 107.5 66.6314 108.233 67.1914 108.74C67.7647 109.233 68.4247 109.48 69.1714 109.48C69.7714 109.48 70.2714 109.347 70.6714 109.08C71.0847 108.8 71.3914 108.427 71.5914 107.96H73.7114C73.4447 108.893 72.9114 109.673 72.1114 110.3C71.3247 110.927 70.3447 111.24 69.1714 111.24ZM69.1714 102.58C68.4647 102.58 67.8381 102.793 67.2914 103.22C66.7447 103.633 66.4114 104.26 66.2914 105.1H71.8914C71.8514 104.327 71.5781 103.713 71.0714 103.26C70.5647 102.807 69.9314 102.58 69.1714 102.58ZM80.1344 107.96C79.6144 107.96 79.1344 107.9 78.6944 107.78L77.8344 108.62C77.981 108.713 78.161 108.793 78.3744 108.86C78.5877 108.927 78.8877 108.987 79.2744 109.04C79.661 109.093 80.1877 109.147 80.8544 109.2C82.1744 109.32 83.1277 109.64 83.7144 110.16C84.301 110.667 84.5944 111.347 84.5944 112.2C84.5944 112.787 84.4344 113.34 84.1144 113.86C83.8077 114.393 83.321 114.82 82.6544 115.14C82.001 115.473 81.161 115.64 80.1344 115.64C78.7477 115.64 77.621 115.373 76.7544 114.84C75.901 114.32 75.4744 113.527 75.4744 112.46C75.4744 112.047 75.581 111.633 75.7944 111.22C76.021 110.82 76.3744 110.44 76.8544 110.08C76.5744 109.96 76.3277 109.833 76.1144 109.7C75.9144 109.553 75.7344 109.407 75.5744 109.26V108.78L77.2944 107.02C76.521 106.353 76.1344 105.48 76.1344 104.4C76.1344 103.747 76.2877 103.153 76.5944 102.62C76.9144 102.073 77.3744 101.64 77.9744 101.32C78.5744 101 79.2944 100.84 80.1344 100.84C80.6944 100.84 81.2144 100.92 81.6944 101.08H85.3944V102.48L83.6344 102.58C83.9544 103.127 84.1144 103.733 84.1144 104.4C84.1144 105.067 83.9544 105.667 83.6344 106.2C83.3277 106.733 82.8744 107.16 82.2744 107.48C81.6877 107.8 80.9744 107.96 80.1344 107.96ZM80.1344 106.3C80.7477 106.3 81.241 106.14 81.6144 105.82C82.001 105.487 82.1944 105.02 82.1944 104.42C82.1944 103.807 82.001 103.34 81.6144 103.02C81.241 102.7 80.7477 102.54 80.1344 102.54C79.5077 102.54 79.001 102.7 78.6144 103.02C78.241 103.34 78.0544 103.807 78.0544 104.42C78.0544 105.02 78.241 105.487 78.6144 105.82C79.001 106.14 79.5077 106.3 80.1344 106.3ZM77.4744 112.26C77.4744 112.833 77.7277 113.26 78.2344 113.54C78.741 113.833 79.3744 113.98 80.1344 113.98C80.8677 113.98 81.461 113.82 81.9144 113.5C82.3677 113.193 82.5944 112.78 82.5944 112.26C82.5944 111.873 82.441 111.54 82.1344 111.26C81.8277 110.993 81.2477 110.827 80.3944 110.76C79.7544 110.72 79.1877 110.66 78.6944 110.58C78.2277 110.833 77.9077 111.107 77.7344 111.4C77.561 111.693 77.4744 111.98 77.4744 112.26ZM90.6453 111.24C89.8053 111.24 89.112 111.1 88.5653 110.82C88.0186 110.54 87.612 110.173 87.3453 109.72C87.0786 109.253 86.9453 108.747 86.9453 108.2C86.9453 107.24 87.3186 106.48 88.0653 105.92C88.812 105.36 89.8786 105.08 91.2653 105.08H93.8653V104.9C93.8653 104.127 93.652 103.547 93.2253 103.16C92.812 102.773 92.272 102.58 91.6053 102.58C91.0186 102.58 90.5053 102.727 90.0653 103.02C89.6386 103.3 89.3786 103.72 89.2853 104.28H87.1653C87.232 103.56 87.472 102.947 87.8853 102.44C88.312 101.92 88.8453 101.527 89.4853 101.26C90.1386 100.98 90.852 100.84 91.6253 100.84C93.012 100.84 94.0853 101.207 94.8453 101.94C95.6053 102.66 95.9853 103.647 95.9853 104.9V111H94.1453L93.9653 109.3C93.6853 109.847 93.2786 110.307 92.7453 110.68C92.212 111.053 91.512 111.24 90.6453 111.24ZM91.0653 109.52C91.6386 109.52 92.1186 109.387 92.5053 109.12C92.9053 108.84 93.212 108.473 93.4253 108.02C93.652 107.567 93.792 107.067 93.8453 106.52H91.4853C90.6453 106.52 90.0453 106.667 89.6853 106.96C89.3386 107.253 89.1653 107.62 89.1653 108.06C89.1653 108.513 89.332 108.873 89.6653 109.14C90.012 109.393 90.4786 109.52 91.0653 109.52Z" fill="#C2C5CC"/>
</svg>
