<svg width="129" height="130" viewBox="0 0 129 130" fill="none" xmlns="http://www.w3.org/2000/svg">
<g opacity="0.1">
<path opacity="0.1" d="M128.12 125.655V128.657H125.12" stroke="#20263C" stroke-miterlimit="10"/>
<path opacity="0.1" d="M119.35 128.657H6.87988" stroke="#20263C" stroke-miterlimit="10" stroke-dasharray="5.77 5.77"/>
<path opacity="0.1" d="M4 128.657H1V125.655" stroke="#20263C" stroke-miterlimit="10"/>
<path opacity="0.1" d="M1 119.882V7.35028" stroke="#20263C" stroke-miterlimit="10" stroke-dasharray="5.77 5.77"/>
<path opacity="0.1" d="M1 4.46875V1.46716H4" stroke="#20263C" stroke-miterlimit="10"/>
<path opacity="0.1" d="M9.76001 1.46716H122.24" stroke="#20263C" stroke-miterlimit="10" stroke-dasharray="5.77 5.77"/>
<path opacity="0.1" d="M125.12 1.46716H128.12V4.46875" stroke="#20263C" stroke-miterlimit="10"/>
<path opacity="0.1" d="M128.12 10.2319V122.773" stroke="#20263C" stroke-miterlimit="10" stroke-dasharray="5.77 5.77"/>
</g>
<path d="M65 63.8391C63.0535 63.8478 61.1327 63.3759 59.3952 62.4624C57.6578 61.5488 56.153 60.2196 55.0046 58.5837L47 63.3691C47.3046 63.7346 47.6652 64.045 48.0673 64.2877L62.3113 72.8331C63.1438 73.2757 64.0652 73.5065 65 73.5065C65.9348 73.5065 66.8562 73.2757 67.6887 72.8331L81.9327 64.2877C82.3348 64.045 82.6954 63.7346 83 63.3691L75.016 58.4983C73.8743 60.1529 72.3703 61.5004 70.6284 62.4292C68.8866 63.358 66.9571 63.8414 65 63.8391Z" fill="#C2C5CC"/>
<path d="M52.4673 50.9431C52.4746 47.905 53.6548 44.9759 55.7823 42.7158C57.9098 40.4556 60.8355 39.0229 64 38.6916V29.4824C63.5199 29.5777 63.058 29.743 62.6306 29.9725L47.7815 38.1403C46.9744 38.6555 46.3033 39.3421 45.8208 40.1464C45.3382 40.9505 45.0573 41.8503 45 42.7754V59.1108C45.0066 59.5822 45.0858 60.0501 45.2353 60.4994L53.58 55.9051C52.8503 54.3433 52.4713 52.6531 52.4673 50.9431Z" fill="#C2C5CC"/>
<path d="M82.3649 38.1346L68.2973 29.9722C67.8925 29.7428 67.4549 29.5776 67 29.4824V38.665C68.9111 38.8831 70.7447 39.5496 72.3531 40.6114C73.9615 41.6731 75.2998 43.1002 76.2602 44.7777C77.2206 46.4552 77.7762 48.3363 77.8824 50.2696C77.9886 52.2028 77.6424 54.1341 76.8716 55.9081L84.7771 60.4994C84.9187 60.0503 84.9938 59.5828 85 59.1118V42.7871C84.9488 41.8591 84.6841 40.9558 84.2268 40.1484C83.7694 39.3409 83.1321 38.6515 82.3649 38.1346Z" fill="#C2C5CC"/>
<path d="M92.6116 29.9538L69.3885 16.5157C68.0266 15.8312 66.5238 15.4748 65 15.4748C63.4762 15.4748 61.9736 15.8312 60.6116 16.5157L37.3884 29.9538C36.1137 30.7858 35.0524 31.9066 34.29 33.2254C33.5277 34.5442 33.0858 36.0241 33 37.5455V64.4217C33.0842 65.9464 33.5253 67.4299 34.2876 68.7524C35.0499 70.0749 36.1121 71.1992 37.3884 72.0345L60.6116 85.473C61.9736 86.1574 63.4762 86.5135 65 86.5135C66.5238 86.5135 68.0266 86.1574 69.3885 85.473L92.6116 72.0345C93.8879 71.1992 94.9501 70.0749 95.7124 68.7524C96.4747 67.4299 96.9158 65.9464 97 64.4217V37.5455C96.9142 36.0241 96.4723 34.5442 95.71 33.2254C94.9476 31.9066 93.8863 30.7858 92.6116 29.9538ZM89.6299 61.3303C89.5617 62.5016 89.2204 63.6406 88.6333 64.6558C88.0463 65.6712 87.2298 66.5344 86.2493 67.1767L68.3595 77.5233C67.3145 78.0519 66.1602 78.3274 64.9895 78.3274C63.8188 78.3274 62.6644 78.0519 61.6195 77.5233L43.7507 67.1767C42.7702 66.5344 41.9537 65.6712 41.3667 64.6558C40.7796 63.6406 40.4383 62.5016 40.3701 61.3303V40.658C40.4383 39.4867 40.7796 38.3478 41.3667 37.3325C41.9537 36.3172 42.7702 35.4538 43.7507 34.8116L61.5984 24.465C62.6434 23.9364 63.7977 23.661 64.9685 23.661C66.1392 23.661 67.2936 23.9364 68.3386 24.465L86.2283 34.8116C87.2126 35.4515 88.0333 36.3139 88.6241 37.3293C89.2149 38.3447 89.5594 39.4849 89.6299 40.658V61.3303Z" fill="#C2C5CC"/>
<path d="M56 50.9942C56 52.6762 56.5278 54.3205 57.5167 55.719C58.5056 57.1177 59.9113 58.2077 61.5559 58.8515C63.2004 59.4951 65.01 59.6635 66.7559 59.3354C68.5017 59.0072 70.1053 58.1973 71.3639 57.0079C72.6226 55.8185 73.4798 54.3031 73.8271 52.6534C74.1743 51.0036 73.9961 49.2936 73.3149 47.7396C72.6337 46.1855 71.4803 44.8573 70.0002 43.9228C68.5202 42.9883 66.78 42.4895 65 42.4895C62.6131 42.4895 60.3239 43.3855 58.6361 44.9805C56.9482 46.5755 56 48.7386 56 50.9942Z" fill="#C2C5CC"/>
<path d="M32.88 108.24C31.4933 108.24 30.28 107.933 29.24 107.32C28.2 106.707 27.3867 105.86 26.8 104.78C26.2133 103.687 25.92 102.427 25.92 101C25.92 99.5733 26.2133 98.32 26.8 97.24C27.3867 96.1467 28.2 95.2933 29.24 94.68C30.28 94.0667 31.4933 93.76 32.88 93.76C34.2667 93.76 35.48 94.0667 36.52 94.68C37.56 95.2933 38.3667 96.1467 38.94 97.24C39.5267 98.32 39.82 99.5733 39.82 101C39.82 102.373 39.5467 103.593 39 104.66C38.4667 105.727 37.72 106.567 36.76 107.18L40.14 110.62H37.46L34.96 107.98C34.3067 108.153 33.6133 108.24 32.88 108.24ZM32.88 106.34C33.84 106.34 34.6733 106.127 35.38 105.7C36.1 105.273 36.66 104.66 37.06 103.86C37.46 103.06 37.66 102.107 37.66 101C37.66 99.8933 37.46 98.94 37.06 98.14C36.66 97.34 36.1 96.7267 35.38 96.3C34.6733 95.8733 33.84 95.66 32.88 95.66C31.92 95.66 31.08 95.8733 30.36 96.3C29.64 96.7267 29.08 97.34 28.68 98.14C28.2933 98.94 28.1 99.8933 28.1 101C28.1 102.107 28.2933 103.06 28.68 103.86C29.08 104.66 29.64 105.273 30.36 105.7C31.08 106.127 31.92 106.34 32.88 106.34ZM45.918 108.24C44.718 108.24 43.7713 107.867 43.078 107.12C42.398 106.373 42.058 105.26 42.058 103.78V98.08H44.178V103.56C44.178 105.48 44.9646 106.44 46.538 106.44C47.3246 106.44 47.9713 106.16 48.478 105.6C48.9846 105.04 49.238 104.24 49.238 103.2V98.08H51.358V108H49.478L49.318 106.26C49.0113 106.873 48.558 107.36 47.958 107.72C47.3713 108.067 46.6913 108.24 45.918 108.24ZM59.6348 108.24C58.8615 108.24 58.1748 108.087 57.5748 107.78C56.9882 107.473 56.5215 107.04 56.1748 106.48L55.9548 108H54.0548V93.6H56.1748V99.62C56.4948 99.1533 56.9348 98.74 57.4948 98.38C58.0548 98.02 58.7748 97.84 59.6548 97.84C60.6148 97.84 61.4615 98.0667 62.1948 98.52C62.9282 98.9733 63.5015 99.5933 63.9148 100.38C64.3415 101.167 64.5548 102.06 64.5548 103.06C64.5548 104.06 64.3415 104.953 63.9148 105.74C63.5015 106.513 62.9282 107.127 62.1948 107.58C61.4615 108.02 60.6082 108.24 59.6348 108.24ZM59.2748 106.4C60.1815 106.4 60.9282 106.093 61.5148 105.48C62.1015 104.853 62.3948 104.04 62.3948 103.04C62.3948 102.387 62.2615 101.807 61.9948 101.3C61.7282 100.793 61.3615 100.4 60.8948 100.12C60.4282 99.8267 59.8882 99.68 59.2748 99.68C58.3682 99.68 57.6215 99.9933 57.0348 100.62C56.4615 101.247 56.1748 102.053 56.1748 103.04C56.1748 104.04 56.4615 104.853 57.0348 105.48C57.6215 106.093 58.3682 106.4 59.2748 106.4ZM68.0478 96.2C67.6478 96.2 67.3145 96.08 67.0478 95.84C66.7945 95.5867 66.6678 95.2733 66.6678 94.9C66.6678 94.5267 66.7945 94.22 67.0478 93.98C67.3145 93.7267 67.6478 93.6 68.0478 93.6C68.4478 93.6 68.7745 93.7267 69.0278 93.98C69.2945 94.22 69.4278 94.5267 69.4278 94.9C69.4278 95.2733 69.2945 95.5867 69.0278 95.84C68.7745 96.08 68.4478 96.2 68.0478 96.2ZM66.9878 108V98.08H69.1078V108H66.9878ZM70.9464 108L74.4664 103.04L70.9464 98.08H73.2064L75.8664 101.88L78.5064 98.08H80.7864L77.2664 103.04L80.7864 108H78.5064L75.8664 104.2L73.2064 108H70.9464ZM85.7352 108.24C84.8952 108.24 84.2018 108.1 83.6552 107.82C83.1085 107.54 82.7018 107.173 82.4352 106.72C82.1685 106.253 82.0352 105.747 82.0352 105.2C82.0352 104.24 82.4085 103.48 83.1552 102.92C83.9018 102.36 84.9685 102.08 86.3552 102.08H88.9552V101.9C88.9552 101.127 88.7418 100.547 88.3152 100.16C87.9018 99.7733 87.3618 99.58 86.6952 99.58C86.1085 99.58 85.5952 99.7267 85.1552 100.02C84.7285 100.3 84.4685 100.72 84.3752 101.28H82.2552C82.3218 100.56 82.5618 99.9467 82.9752 99.44C83.4018 98.92 83.9352 98.5267 84.5752 98.26C85.2285 97.98 85.9418 97.84 86.7152 97.84C88.1018 97.84 89.1752 98.2067 89.9352 98.94C90.6952 99.66 91.0752 100.647 91.0752 101.9V108H89.2352L89.0552 106.3C88.7752 106.847 88.3685 107.307 87.8352 107.68C87.3018 108.053 86.6018 108.24 85.7352 108.24ZM86.1552 106.52C86.7285 106.52 87.2085 106.387 87.5952 106.12C87.9952 105.84 88.3018 105.473 88.5152 105.02C88.7418 104.567 88.8818 104.067 88.9352 103.52H86.5752C85.7352 103.52 85.1352 103.667 84.7752 103.96C84.4285 104.253 84.2552 104.62 84.2552 105.06C84.2552 105.513 84.4218 105.873 84.7552 106.14C85.1018 106.393 85.5685 106.52 86.1552 106.52ZM93.547 108V98.08H95.427L95.587 99.82C95.8937 99.2067 96.3404 98.7267 96.927 98.38C97.527 98.02 98.2137 97.84 98.987 97.84C100.187 97.84 101.127 98.2133 101.807 98.96C102.5 99.7067 102.847 100.82 102.847 102.3V108H100.747V102.52C100.747 100.6 99.9604 99.64 98.387 99.64C97.6004 99.64 96.947 99.92 96.427 100.48C95.9204 101.04 95.667 101.84 95.667 102.88V108H93.547Z" fill="#C2C5CC"/>
</svg>
