<svg width="128" height="128" viewBox="0 0 128 128" fill="none" xmlns="http://www.w3.org/2000/svg">
<path d="M70.5105 34.1259C72.4728 34.1277 74.4127 34.5541 76.2036 35.3769C77.9945 36.1999 79.5963 37.4009 80.9045 38.9018L85 35.113C82.3785 32.1214 78.9392 30.0102 75.1308 29.0549C71.3225 28.0995 67.322 28.3443 63.6512 29.7574C59.9805 31.1704 56.81 33.6861 54.5536 36.9761C52.2971 40.2662 51.0595 44.1777 51.0021 48.2005C50.9447 52.2232 52.0703 56.1704 54.2319 59.5267C56.3936 62.8831 59.4909 65.493 63.1198 67.0157C66.7486 68.5383 70.7405 68.9032 74.5745 68.0627C78.4084 67.2221 81.9065 65.2151 84.6122 62.3036L80.6097 58.4033C79.0153 60.1143 77.0326 61.3932 74.8389 62.1257C72.6452 62.8582 70.3087 63.0215 68.0385 62.6009C65.7682 62.1804 63.635 61.1891 61.8293 59.7157C60.0236 58.2423 58.6018 56.3328 57.6911 54.1577C56.7803 51.9826 56.4089 49.6098 56.6101 47.2515C56.8114 44.8931 57.5789 42.6227 58.8441 40.6432C60.1094 38.6636 61.8329 37.0366 63.8607 35.9077C65.8884 34.7787 68.1571 34.183 70.4641 34.1737L70.5105 34.1259Z" fill="#C2C5CC"/>
<path d="M52 29.3922L47.9594 25.4808C44.8029 28.4977 42.2982 32.0836 40.589 36.0329C38.8799 39.982 38 44.2166 38 48.4934C38 52.7701 38.8799 57.0047 40.589 60.9539C42.2982 64.9031 44.8029 68.4891 47.9594 71.5059L52 67.5945C49.3683 65.0968 47.2789 62.1224 45.8528 58.8435C44.4268 55.5647 43.6925 52.0467 43.6925 48.4934C43.6925 44.94 44.4268 41.422 45.8528 38.1432C47.2789 34.8643 49.3683 31.8899 52 29.3922Z" fill="#C2C5CC"/>
<path d="M90 21.9542C84.4907 17.7368 77.8335 15.4668 71 15.4754V21.1544C76.6385 21.149 82.1326 23.0146 86.6877 26.4814L90 21.9542Z" fill="#C2C5CC"/>
<path d="M71 75.9089V81.5114C77.3922 81.5186 83.6477 79.6539 89 76.1457L85.8559 71.5059C81.433 74.3865 76.2722 75.9161 71 75.9089Z" fill="#C2C5CC"/>
<path d="M71 68.9895C66.6698 68.9866 62.445 67.6908 58.8976 65.2776C55.3501 62.8644 52.6513 59.4501 51.1663 55.4972L46 57.8288C47.9455 62.7378 51.3755 66.959 55.8382 69.9363C60.3009 72.9136 65.5869 74.5073 71 74.5076V68.9895Z" fill="#C2C5CC"/>
<path d="M50.517 47.4928C50.8524 42.2294 53.1558 37.2922 56.9597 33.6827C60.7636 30.0733 65.7832 28.062 71 28.0569V22.4792C64.3193 22.479 57.8943 25.0756 53.0546 29.7316C48.2149 34.3878 45.331 40.7468 45 47.4928H50.517Z" fill="#C2C5CC"/>
<path d="M37.66 106.24C36.2733 106.24 35.0733 105.94 34.06 105.34C33.06 104.727 32.2867 103.88 31.74 102.8C31.1933 101.707 30.92 100.447 30.92 99.02C30.92 97.58 31.1933 96.32 31.74 95.24C32.2867 94.1467 33.06 93.2933 34.06 92.68C35.0733 92.0667 36.2733 91.76 37.66 91.76C39.3 91.76 40.64 92.16 41.68 92.96C42.72 93.76 43.38 94.88 43.66 96.32H41.3C41.1133 95.5067 40.7133 94.86 40.1 94.38C39.4867 93.9 38.6667 93.66 37.64 93.66C36.24 93.66 35.1333 94.14 34.32 95.1C33.5067 96.0467 33.1 97.3533 33.1 99.02C33.1 100.673 33.5067 101.973 34.32 102.92C35.1333 103.867 36.24 104.34 37.64 104.34C38.6667 104.34 39.4867 104.113 40.1 103.66C40.7133 103.207 41.1133 102.587 41.3 101.8H43.66C43.38 103.187 42.72 104.273 41.68 105.06C40.64 105.847 39.3 106.24 37.66 106.24ZM49.2703 106.24C48.4303 106.24 47.737 106.1 47.1903 105.82C46.6436 105.54 46.237 105.173 45.9703 104.72C45.7036 104.253 45.5703 103.747 45.5703 103.2C45.5703 102.24 45.9436 101.48 46.6903 100.92C47.437 100.36 48.5036 100.08 49.8903 100.08H52.4903V99.9C52.4903 99.1267 52.277 98.5467 51.8503 98.16C51.437 97.7733 50.897 97.58 50.2303 97.58C49.6436 97.58 49.1303 97.7267 48.6903 98.02C48.2636 98.3 48.0036 98.72 47.9103 99.28H45.7903C45.857 98.56 46.097 97.9467 46.5103 97.44C46.937 96.92 47.4703 96.5267 48.1103 96.26C48.7636 95.98 49.477 95.84 50.2503 95.84C51.637 95.84 52.7103 96.2067 53.4703 96.94C54.2303 97.66 54.6103 98.6467 54.6103 99.9V106H52.7703L52.5903 104.3C52.3103 104.847 51.9036 105.307 51.3703 105.68C50.837 106.053 50.137 106.24 49.2703 106.24ZM49.6903 104.52C50.2636 104.52 50.7436 104.387 51.1303 104.12C51.5303 103.84 51.837 103.473 52.0503 103.02C52.277 102.567 52.417 102.067 52.4703 101.52H50.1103C49.2703 101.52 48.6703 101.667 48.3103 101.96C47.9636 102.253 47.7903 102.62 47.7903 103.06C47.7903 103.513 47.957 103.873 48.2903 104.14C48.637 104.393 49.1036 104.52 49.6903 104.52ZM56.1222 106L59.6422 101.04L56.1222 96.08H58.3822L61.0422 99.88L63.6822 96.08H65.9622L62.4422 101.04L65.9622 106H63.6822L61.0422 102.2L58.3822 106H56.1222ZM70.9109 106.24C70.0709 106.24 69.3776 106.1 68.8309 105.82C68.2843 105.54 67.8776 105.173 67.6109 104.72C67.3443 104.253 67.2109 103.747 67.2109 103.2C67.2109 102.24 67.5843 101.48 68.3309 100.92C69.0776 100.36 70.1443 100.08 71.5309 100.08H74.1309V99.9C74.1309 99.1267 73.9176 98.5467 73.4909 98.16C73.0776 97.7733 72.5376 97.58 71.8709 97.58C71.2843 97.58 70.7709 97.7267 70.3309 98.02C69.9043 98.3 69.6443 98.72 69.5509 99.28H67.4309C67.4976 98.56 67.7376 97.9467 68.1509 97.44C68.5776 96.92 69.1109 96.5267 69.7509 96.26C70.4043 95.98 71.1176 95.84 71.8909 95.84C73.2776 95.84 74.3509 96.2067 75.1109 96.94C75.8709 97.66 76.2509 98.6467 76.2509 99.9V106H74.4109L74.2309 104.3C73.9509 104.847 73.5443 105.307 73.0109 105.68C72.4776 106.053 71.7776 106.24 70.9109 106.24ZM71.3309 104.52C71.9043 104.52 72.3843 104.387 72.7709 104.12C73.1709 103.84 73.4776 103.473 73.6909 103.02C73.9176 102.567 74.0576 102.067 74.1109 101.52H71.7509C70.9109 101.52 70.3109 101.667 69.9509 101.96C69.6043 102.253 69.4309 102.62 69.4309 103.06C69.4309 103.513 69.5976 103.873 69.9309 104.14C70.2776 104.393 70.7443 104.52 71.3309 104.52ZM78.7228 106V96.08H80.6228L80.8028 97.96C81.1495 97.3067 81.6295 96.7933 82.2428 96.42C82.8695 96.0333 83.6228 95.84 84.5028 95.84V98.06H83.9228C83.3361 98.06 82.8095 98.16 82.3428 98.36C81.8895 98.5467 81.5228 98.8733 81.2428 99.34C80.9761 99.7933 80.8428 100.427 80.8428 101.24V106H78.7228ZM89.6805 106.24C88.8405 106.24 88.1471 106.1 87.6005 105.82C87.0538 105.54 86.6471 105.173 86.3805 104.72C86.1138 104.253 85.9805 103.747 85.9805 103.2C85.9805 102.24 86.3538 101.48 87.1005 100.92C87.8471 100.36 88.9138 100.08 90.3005 100.08H92.9005V99.9C92.9005 99.1267 92.6871 98.5467 92.2605 98.16C91.8471 97.7733 91.3071 97.58 90.6405 97.58C90.0538 97.58 89.5405 97.7267 89.1005 98.02C88.6738 98.3 88.4138 98.72 88.3205 99.28H86.2005C86.2671 98.56 86.5071 97.9467 86.9205 97.44C87.3471 96.92 87.8805 96.5267 88.5205 96.26C89.1738 95.98 89.8871 95.84 90.6605 95.84C92.0471 95.84 93.1205 96.2067 93.8805 96.94C94.6405 97.66 95.0205 98.6467 95.0205 99.9V106H93.1805L93.0005 104.3C92.7205 104.847 92.3138 105.307 91.7805 105.68C91.2471 106.053 90.5471 106.24 89.6805 106.24ZM90.1005 104.52C90.6738 104.52 91.1538 104.387 91.5405 104.12C91.9405 103.84 92.2471 103.473 92.4605 103.02C92.6871 102.567 92.8271 102.067 92.8805 101.52H90.5205C89.6805 101.52 89.0805 101.667 88.7205 101.96C88.3738 102.253 88.2005 102.62 88.2005 103.06C88.2005 103.513 88.3671 103.873 88.7005 104.14C89.0471 104.393 89.5138 104.52 90.1005 104.52Z" fill="#C2C5CC"/>
</svg>
