<svg width="56" height="59" viewBox="0 0 56 59" fill="none" xmlns="http://www.w3.org/2000/svg">
<g filter="url(#filter0_d)">
<path d="M27.9167 51.9785C40.5732 51.9785 50.8334 41.7128 50.8334 29.0494C50.8334 16.3861 40.5732 6.12036 27.9167 6.12036C15.2601 6.12036 5 16.3861 5 29.0494C5 41.7128 15.2601 51.9785 27.9167 51.9785Z" stroke="#3451D2" stroke-width="3" stroke-linecap="round" stroke-linejoin="round"/>
<path d="M5 29.0498H50.8333" stroke="#3451D2" stroke-width="3" stroke-linecap="round" stroke-linejoin="round"/>
<path d="M27.9167 6.12036C33.6488 12.3992 36.9063 20.5474 37.0834 29.0494C36.9063 37.5515 33.6488 45.6997 27.9167 51.9785C22.1846 45.6997 18.927 37.5515 18.75 29.0494C18.927 20.5474 22.1846 12.3992 27.9167 6.12036V6.12036Z" stroke="#3451D2" stroke-width="3" stroke-linecap="round" stroke-linejoin="round"/>
</g>
<defs>
<filter id="filter0_d" x="2.5" y="4.62036" width="52.8334" height="53.8583" filterUnits="userSpaceOnUse" color-interpolation-filters="sRGB">
<feFlood flood-opacity="0" result="BackgroundImageFix"/>
<feColorMatrix in="SourceAlpha" type="matrix" values="0 0 0 0 0 0 0 0 0 0 0 0 0 0 0 0 0 0 127 0"/>
<feOffset dx="1" dy="3"/>
<feGaussianBlur stdDeviation="1"/>
<feColorMatrix type="matrix" values="0 0 0 0 0 0 0 0 0 0 0 0 0 0 0 0 0 0 0.25 0"/>
<feBlend mode="normal" in2="BackgroundImageFix" result="effect1_dropShadow"/>
<feBlend mode="normal" in="SourceGraphic" in2="effect1_dropShadow" result="shape"/>
</filter>
</defs>
</svg>
