<svg width="24" height="25" viewBox="0 0 24 25" fill="none" xmlns="http://www.w3.org/2000/svg">
<path d="M23.04 0H0.96C0.429 0 0 0.429227 0 0.960508V23.0522C0 23.5835 0.429 24.0127 0.96 24.0127H23.04C23.571 24.0127 24 23.5835 24 23.0522V0.960508C24 0.429227 23.571 0 23.04 0ZM7.119 20.4618H3.558V9.00176H7.119V20.4618ZM5.34 7.43493C4.93178 7.43493 4.53273 7.31382 4.1933 7.0869C3.85388 6.85998 3.58933 6.53746 3.43311 6.16012C3.27689 5.78277 3.23602 5.36755 3.31566 4.96696C3.3953 4.56637 3.59188 4.19841 3.88053 3.9096C4.16919 3.62079 4.53696 3.42411 4.93733 3.34443C5.33771 3.26475 5.75271 3.30564 6.12986 3.46194C6.507 3.61824 6.82936 3.88293 7.05615 4.22254C7.28295 4.56214 7.404 4.9614 7.404 5.36984C7.401 6.51044 6.477 7.43493 5.34 7.43493ZM20.451 20.4618H16.893V14.8879C16.893 13.5582 16.869 11.8503 15.042 11.8503C13.191 11.8503 12.906 13.297 12.906 14.7918V20.4618H9.351V9.00176H12.765V10.5686H12.813C13.287 9.66811 14.448 8.71661 16.182 8.71661C19.788 8.71661 20.451 11.0909 20.451 14.1765V20.4618V20.4618Z" fill="#8C939A"/>
</svg>
