<svg width="24" height="25" viewBox="0 0 24 25" fill="none" xmlns="http://www.w3.org/2000/svg">
<path d="M11.9968 8.00236C9.79333 8.00236 7.99515 9.80149 7.99515 12.0061C7.99515 14.2107 9.79333 16.0098 11.9968 16.0098C14.2002 16.0098 15.9984 14.2107 15.9984 12.0061C15.9984 9.80149 14.2002 8.00236 11.9968 8.00236ZM23.9987 12.0061C23.9987 10.3481 24.0137 8.7052 23.9206 7.05024C23.8275 5.12796 23.3893 3.42194 21.9843 2.01628C20.5764 0.607611 18.8743 0.172096 16.953 0.0789858C15.2959 -0.0141244 13.6539 0.00089339 11.9998 0.00089339C10.3427 0.00089339 8.70061 -0.0141244 7.04652 0.0789858C5.12526 0.172096 3.42014 0.610615 2.01522 2.01628C0.607291 3.42495 0.172005 5.12796 0.0789442 7.05024C-0.014117 8.7082 0.000892919 10.3511 0.000892919 12.0061C0.000892919 13.6611 -0.014117 15.307 0.0789442 16.962C0.172005 18.8842 0.610293 20.5903 2.01522 21.9959C3.42314 23.4046 5.12526 23.8401 7.04652 23.9332C8.70361 24.0263 10.3457 24.0113 11.9998 24.0113C13.6569 24.0113 15.2989 24.0263 16.953 23.9332C18.8743 23.8401 20.5794 23.4016 21.9843 21.9959C23.3923 20.5873 23.8275 18.8842 23.9206 16.962C24.0167 15.307 23.9987 13.6641 23.9987 12.0061V12.0061ZM11.9968 18.1664C8.58954 18.1664 5.83973 15.4151 5.83973 12.0061C5.83973 8.59707 8.58954 5.84581 11.9968 5.84581C15.404 5.84581 18.1538 8.59707 18.1538 12.0061C18.1538 15.4151 15.404 18.1664 11.9968 18.1664ZM18.406 7.03222C17.6105 7.03222 16.968 6.38946 16.968 5.59351C16.968 4.79757 17.6105 4.15481 18.406 4.15481C19.2015 4.15481 19.8439 4.79757 19.8439 5.59351C19.8442 5.78251 19.8071 5.9697 19.735 6.14436C19.6628 6.31902 19.5569 6.47772 19.4233 6.61136C19.2897 6.745 19.1311 6.85097 18.9565 6.92318C18.782 6.9954 18.5949 7.03245 18.406 7.03222V7.03222Z" fill="#8C939A"/>
</svg>
