<svg width="24" height="20" viewBox="0 0 24 20" fill="none" xmlns="http://www.w3.org/2000/svg">
<path d="M24 2.31141C23.3317 3.30579 22.5117 4.15345 21.5402 4.8544C21.5498 5.04238 21.5546 5.25486 21.5546 5.49182C21.5546 6.80844 21.3627 8.12664 20.9789 9.44644C20.5951 10.7663 20.0088 12.0295 19.2201 13.2363C18.4314 14.4431 17.4918 15.5122 16.4015 16.4436C15.3112 17.375 14.0006 18.1177 12.4697 18.6716C10.9389 19.2255 9.29815 19.5024 7.54763 19.5024C4.81566 19.5024 2.29978 18.7647 0 17.2892C0.408184 17.3347 0.799667 17.3574 1.17445 17.3574C3.45679 17.3574 5.49529 16.6542 7.28994 15.2478C6.22578 15.2283 5.27275 14.9006 4.43084 14.2648C3.58894 13.629 3.00956 12.8165 2.6927 11.8274C3.00589 11.8871 3.315 11.9169 3.62003 11.9169C4.05909 11.9169 4.49112 11.8596 4.91613 11.7451C3.78047 11.5176 2.83835 10.9518 2.08976 10.0477C1.3412 9.14366 0.966919 8.10021 0.966919 6.91736V6.8564C1.66399 7.24247 2.40752 7.44783 3.19752 7.47248C2.52477 7.02385 1.99138 6.43883 1.59735 5.71741C1.20329 4.99599 1.00626 4.21529 1.00626 3.37531C1.00626 2.4894 1.22819 1.66446 1.67205 0.900479C2.90706 2.41644 4.40352 3.62805 6.16144 4.5353C7.91939 5.44256 9.80534 5.94643 11.8193 6.0469C11.7334 5.68882 11.6904 5.31515 11.6902 4.92589C11.6902 3.56672 12.171 2.40619 13.1327 1.4443C14.0945 0.48241 15.2547 0.00146484 16.6135 0.00146484C18.0361 0.00146484 19.2344 0.519612 20.2083 1.55591C21.3211 1.33543 22.363 0.93664 23.3341 0.359541C22.96 1.53727 22.2391 2.44581 21.1714 3.08515C22.1527 2.96851 23.0955 2.7106 24 2.31141H24Z" fill="#8C939A"/>
</svg>
